<svg width="44" height="44" viewBox="0 0 44 44" fill="none" xmlns="http://www.w3.org/2000/svg">
<path d="M21.8597 43.5161C16.1959 43.5161 10.84 41.3782 6.73769 37.4642C2.51787 33.4445 0.128124 28.0273 0.00499918 22.2204C-0.118126 16.4079 2.03657 10.9016 6.0829 6.70373C10.1236 2.50583 15.5691 0.128509 21.4119 0.000456388C27.2604 -0.0997587 32.7898 2.02703 37.0097 6.04677C41.2295 10.0665 43.6192 15.4837 43.7424 21.2906C43.8655 27.1031 41.7108 32.6093 37.6644 36.8072C33.6237 41.0051 28.1782 43.3825 22.341 43.5049C22.1843 43.5049 22.022 43.5049 21.8653 43.5049L21.8597 43.5161ZM21.8821 2.05487C21.7366 2.05487 21.5966 2.05487 21.4511 2.05487C10.5322 2.28313 1.84069 11.3081 2.07574 22.1703C2.18768 27.4316 4.35356 32.3365 8.17044 35.9721C11.9873 39.6133 17.013 41.5563 22.2906 41.445C27.5794 41.3336 32.5044 39.179 36.1646 35.382C39.8247 31.5849 41.7779 26.5909 41.666 21.3351C41.5541 16.0738 39.3882 11.1689 35.5713 7.52772C31.8552 3.98679 27.0086 2.0493 21.8821 2.0493V2.05487Z" fill="white"/>
<path d="M24.0538 42.3132V28.5448H29.169L29.8966 22.5875H24.0594V18.7738C24.0594 16.7361 24.8541 15.9288 26.6506 15.9288H30.1261V10.6174C22.4867 9.42596 17.7968 11.3913 17.7968 18.7682V22.582H12.6367V28.5392H17.7968V42.1685L24.065 42.3021L24.0538 42.3132Z" fill="white"/>
</svg>
