<svg width="44" height="44" viewBox="0 0 44 44" fill="none" xmlns="http://www.w3.org/2000/svg">
<path d="M21.8597 43.5142C16.196 43.5142 10.8401 41.3763 6.73775 37.4623C2.51792 33.4426 0.128182 28.0254 0.00505734 22.2185C-0.252386 10.2261 9.35136 0.260255 21.4064 0.00414992C27.2548 -0.1072 32.7843 2.02515 37.0041 6.05046C41.2239 10.0702 43.6137 15.4874 43.7368 21.2943C43.8599 27.1068 41.7052 32.613 37.6589 36.8109C33.6182 41.0088 28.1727 43.3862 22.3354 43.5086C22.1787 43.5086 22.0164 43.5086 21.8597 43.5086V43.5142ZM21.8821 2.05856C21.7366 2.05856 21.5967 2.05856 21.4512 2.05856C10.5322 2.28683 1.84074 11.3118 2.07579 22.174C2.30525 32.8914 11.1423 41.4542 21.8709 41.4542C22.0108 41.4542 22.1564 41.4542 22.2963 41.4542C27.585 41.3429 32.51 39.1883 36.1702 35.3912C39.8304 31.5942 41.7836 26.6001 41.6717 21.3444C41.5597 16.0831 39.3938 11.1781 35.577 7.54255C31.8608 4.00162 27.0142 2.06413 21.8877 2.06413L21.8821 2.05856Z" fill="white"/>
<path d="M26.7791 33.4259H16.9738C13.2129 33.4259 10.146 30.3805 10.146 26.6335V16.8793C10.146 13.1379 13.2073 10.0869 16.9738 10.0869H26.7791C30.54 10.0869 33.6069 13.1323 33.6069 16.8793V26.6335C33.6069 30.3749 30.5456 33.4259 26.7791 33.4259ZM16.9682 12.158C14.3546 12.158 12.2279 14.2737 12.2279 16.8737V26.628C12.2279 29.228 14.3546 31.3437 16.9682 31.3437H26.7735C29.3871 31.3437 31.5138 29.228 31.5138 26.628V16.8737C31.5138 14.2737 29.3871 12.158 26.7735 12.158H16.9682Z" fill="white"/>
<path d="M21.8708 27.758C18.5464 27.758 15.8433 25.0689 15.8433 21.7618C15.8433 18.4547 18.5464 15.7656 21.8708 15.7656C25.1952 15.7656 27.8983 18.4547 27.8983 21.7618C27.8983 25.0689 25.1952 27.758 21.8708 27.758ZM21.8708 17.8312C19.6937 17.8312 17.9252 19.5905 17.9252 21.7563C17.9252 23.922 19.6937 25.6814 21.8708 25.6814C24.0479 25.6814 25.8164 23.922 25.8164 21.7563C25.8164 19.5905 24.0479 17.8312 21.8708 17.8312Z" fill="white"/>
<path d="M29.4894 15.8507C29.6654 15.1117 29.2059 14.3706 28.463 14.1955C27.7201 14.0204 26.9752 14.4775 26.7992 15.2166C26.6232 15.9556 27.0827 16.6966 27.8256 16.8717C28.5685 17.0469 29.3134 16.5897 29.4894 15.8507Z" fill="white"/>
</svg>
