<svg width="44" height="44" viewBox="0 0 44 44" fill="none" xmlns="http://www.w3.org/2000/svg">
<path d="M21.866 43.5142C10.018 43.5142 0.257559 34.055 0.00011639 22.2185C-0.123009 16.406 2.03168 10.8998 6.07801 6.70186C10.1243 2.50953 15.5642 0.126635 21.4071 0.00414992C27.2555 -0.1072 32.7849 2.02515 37.0048 6.05046C41.2246 10.0702 43.6143 15.4874 43.7375 21.2943C43.8606 27.1068 41.7059 32.613 37.6596 36.8109C33.6188 41.0088 28.1733 43.3862 22.3361 43.5086C22.1794 43.5086 22.0227 43.5086 21.866 43.5086V43.5142ZM21.8772 2.05856C21.7373 2.05856 21.5918 2.05856 21.4518 2.05856C16.1631 2.16991 11.2325 4.32453 7.5779 8.12157C3.91773 11.9186 1.96452 16.9071 2.07645 22.1684C2.30591 32.8858 11.1429 41.4487 21.8716 41.4487C22.0115 41.4487 22.157 41.4487 22.2969 41.4487C27.5857 41.3373 32.5107 39.1827 36.1709 35.3857C39.831 31.5886 41.7842 26.5946 41.6723 21.3388C41.4429 10.6214 32.6058 2.05856 21.8772 2.05856Z" fill="white"/>
<path d="M22.8901 19.6017C25.2183 15.8102 32.5107 16.2834 32.5107 22.5135V31.9003H28.1005V23.6827C28.1005 22.3353 27.0036 21.2441 25.6492 21.2441C24.2949 21.2441 23.1979 22.3353 23.1979 23.6827V31.9003H18.7095V17.6363H22.8845V19.6017H22.8901Z" fill="white"/>
<path d="M15.8892 17.6143H11.4175V31.9005H15.8892V17.6143Z" fill="white"/>
<path d="M16.1869 13.7587C16.5177 12.3641 15.6495 10.9668 14.2477 10.6376C12.8458 10.3085 11.4412 11.1722 11.1103 12.5667C10.7795 13.9613 11.6477 15.3586 13.0495 15.6878C14.4513 16.0169 15.856 15.1532 16.1869 13.7587Z" fill="white"/>
</svg>
