<svg width="44" height="44" viewBox="0 0 44 44" fill="none" xmlns="http://www.w3.org/2000/svg">
<path d="M21.8597 43.5159C16.1959 43.5159 10.84 41.378 6.73769 37.4641C2.51787 33.4443 0.128124 28.0271 0.00499922 22.2202C-0.118126 16.4077 2.03655 10.9015 6.08289 6.70358C10.1236 2.50568 15.5635 0.128358 21.4063 0.000305807C33.4726 -0.233529 43.4793 9.29804 43.7367 21.2904C43.8599 27.1029 41.7052 32.6092 37.6588 36.8071C33.6181 41.005 28.1726 43.3823 22.3354 43.5048C22.1787 43.5048 22.0164 43.5048 21.8597 43.5048V43.5159ZM21.8765 2.05472C21.7365 2.05472 21.591 2.05472 21.4511 2.05472C16.1624 2.16607 11.2374 4.32069 7.57718 8.11773C3.91701 11.9148 1.96381 16.9088 2.07574 22.1645C2.3052 32.882 11.1422 41.4448 21.8709 41.4448C22.0108 41.4448 22.1563 41.4448 22.2962 41.4448C27.585 41.3335 32.51 39.1788 36.1701 35.3818C39.8303 31.5848 41.7835 26.5907 41.6716 21.335C41.4421 10.6175 32.6051 2.05472 21.8765 2.05472Z" fill="white"/>
<path d="M34.1778 20.5443C34.1218 19.3974 34.0379 17.9665 33.9316 17.2539C33.6797 15.3665 32.5548 14.2753 30.4449 14.0804C28.945 13.9579 26.1859 13.8076 21.9717 13.8076C21.9717 13.8076 21.9605 13.8076 21.9549 13.8076C21.9493 13.8076 21.9437 13.8076 21.9381 13.8076C17.7294 13.8076 14.9703 13.9579 13.4648 14.0804C11.3549 14.2753 10.23 15.361 9.97817 17.2539C9.87183 17.9721 9.78788 19.403 9.73192 20.5443C9.67595 21.6745 9.67595 22.8047 9.73192 23.9349C9.78788 25.0818 9.87183 26.5127 9.97817 27.2253C10.23 29.1127 11.3549 30.2039 13.4648 30.3988C14.9647 30.5213 17.7238 30.6716 21.9381 30.6716C21.9381 30.6716 21.9493 30.6716 21.9549 30.6716C21.9605 30.6716 21.9661 30.6716 21.9717 30.6716C26.1803 30.6716 28.9394 30.5213 30.4449 30.3988C32.5548 30.2039 33.6797 29.1183 33.9316 27.2253C34.0379 26.5071 34.1218 25.0763 34.1778 23.9349C34.2338 22.8047 34.2338 21.6745 34.1778 20.5443ZM19.2909 26.5628V17.9053L26.0851 22.2368L19.2909 26.5572V26.5628Z" fill="white"/>
</svg>
